# xmcd CD database file
#
# Track frame offsets:
#	225
#	13455
#	30810
#	44985
#	59235
#	70890
#	86979
#	99465
#	116417
#	131245
#	147370
#	159408
#	173677
#
# Disc length: 2522 seconds
#
# Revision: 2
# Processed by: cddbd v1.5.2PL0 Copyright (c) Steve Scherf et al.
# Submitted via: CDex 1.70beta2
#
DISCID=c109d70d
DTITLE=Joanie Keller - Sparks are gonna fly
DYEAR=1999
DGENRE=Country
TTITLE0=Run That By Me One More Time
TTITLE1=At the Corner of Walk and Don't Walk
TTITLE2=I Hope Fort Worth Was Worth It
TTITLE3=Somewere Over You
TTITLE4=Grindin' Wheel
TTITLE5=I Quit Givin' Up on You
TTITLE6=Almost Over Me
TTITLE7=Three Little Teardrops
TTITLE8=Bigger Than the Both of Us
TTITLE9=We're Not Finished Yet
TTITLE10=I Didn't Make this Bed for You to Lie In
TTITLE11=The Story
TTITLE12=He Don't Love Me
EXTD=YEAR: 1999
EXTT0=
EXTT1=
EXTT2=
EXTT3=
EXTT4=
EXTT5=
EXTT6=
EXTT7=
EXTT8=
EXTT9=
EXTT10=
EXTT11=
EXTT12=
PLAYORDER=
